<svg width="89" height="88" viewBox="0 0 89 88" fill="none" xmlns="http://www.w3.org/2000/svg">
<g clip-path="url(#clip0_2125_4629)">
<mask id="mask0_2125_4629" style="mask-type:luminance" maskUnits="userSpaceOnUse" x="0" y="0" width="89" height="88">
<path d="M88.5 0H0.5V88H88.5V0Z" fill="white"/>
</mask>
<g mask="url(#mask0_2125_4629)">
<path d="M45.3222 1.8335C64.5238 1.8335 80.0896 17.3994 80.0896 36.601C80.0896 55.8026 64.5238 71.3685 45.3222 71.3685C26.1206 71.3685 10.5547 55.8026 10.5547 36.601C10.5547 17.3994 26.1206 1.8335 45.3222 1.8335Z" fill="#F5F5DC" fill-opacity="0.56"/>
<path d="M31.5771 37.9632L58.8067 37.7443C60.6866 37.7294 62.2226 39.2409 62.2377 41.1207L62.566 81.9651C62.5811 83.8449 61.0695 85.381 59.1897 85.3961L31.96 85.615C30.0802 85.6301 28.544 84.1184 28.5289 82.2386L28.2007 41.3942C28.1856 39.5144 29.6973 37.9783 31.5771 37.9632Z" fill="#F1F5F9"/>
<path d="M31.5771 37.9632L58.8067 37.7443C60.6866 37.7294 62.2226 39.2409 62.2377 41.1207L62.566 81.9651C62.5811 83.8449 61.0695 85.381 59.1897 85.3961L31.96 85.615C30.0802 85.6301 28.544 84.1184 28.5289 82.2386L28.2007 41.3942C28.1856 39.5144 29.6973 37.9783 31.5771 37.9632Z" fill="#F1F5F9" stroke="#003930" stroke-width="0.293333"/>
<path d="M14.7041 34.7816L41.7016 31.2274C44.0979 30.9119 46.2962 32.5987 46.6117 34.9951L51.9432 75.4912C52.2587 77.8875 50.5717 80.0859 48.1755 80.4014L21.178 83.9555C18.7817 84.271 16.5833 82.5842 16.2679 80.1879L10.9364 39.6918C10.6209 37.2956 12.3079 35.097 14.7041 34.7816Z" fill="#FAFAFA"/>
<path d="M14.7978 34.8738L41.7954 31.3197C44.1916 31.0042 46.39 32.691 46.7055 35.0874L52.0369 75.5835C52.3524 77.9798 50.6655 80.1782 48.2692 80.4936L21.2717 84.0478C18.8755 84.3633 16.6771 82.6765 16.3616 80.2802L11.0301 39.7841C10.7146 37.3879 12.4016 35.1893 14.7978 34.8738Z" stroke="#003930" stroke-width="0.293333"/>
<path d="M11.4165 39.6278C11.1361 37.4978 12.6355 35.5438 14.7655 35.2633L41.763 31.709C43.8931 31.4286 45.8471 32.928 46.1276 35.0581L47.0797 42.2895L12.3685 46.8594L11.4165 39.6278Z" fill="#F1F5F9"/>
<path d="M53.238 33.3878C53.2901 33.7843 53.0111 34.1482 52.6146 34.2005L49.2641 34.6414C48.8676 34.6935 48.5037 34.4146 48.4516 34.018C48.3993 33.6215 48.6785 33.2578 49.075 33.2056L52.4253 32.7646C52.8218 32.7123 53.1858 32.9913 53.238 33.3878Z" fill="#003930"/>
<path d="M48.6716 26.7667C48.9432 26.9751 48.9945 27.3642 48.7862 27.6358L47.0255 29.9302C46.8171 30.2017 46.4281 30.2529 46.1566 30.0446C45.885 29.8362 45.8338 29.4472 46.0422 29.1756L47.8027 26.8812C48.0111 26.6097 48.4001 26.5584 48.6716 26.7667Z" fill="#003930"/>
<path d="M40.617 24.8087C40.9908 24.7594 41.3337 25.0225 41.383 25.3963L41.7987 28.555C41.8478 28.9288 41.5849 29.2717 41.211 29.3208C40.8372 29.3701 40.4943 29.1069 40.4452 28.7331L40.0294 25.5746C39.9801 25.2009 40.2432 24.8578 40.617 24.8087Z" fill="#003930"/>
<path d="M19.502 67.5005L27.6917 66.4318C28.2243 66.3617 28.7127 66.7365 28.7828 67.2689C28.8529 67.8015 28.4781 68.29 27.9456 68.3601L19.7559 69.4289C19.2233 69.499 18.7348 69.1241 18.6647 68.5917C18.5946 68.0591 18.9695 67.5706 19.502 67.5005Z" fill="#003930"/>
<path d="M18.2364 57.8582L29.7897 56.2975C30.3222 56.2274 30.8106 56.6023 30.8807 57.1347C30.9508 57.6672 30.5761 58.1558 30.0436 58.2259L18.4903 59.7865C17.9577 59.8566 17.4692 59.4818 17.3991 58.9494C17.3289 58.4168 17.7038 57.9283 18.2364 57.8582Z" fill="#003930"/>
<path d="M17.002 48.2163L26.7906 46.9308C27.3231 46.8607 27.8115 47.2356 27.8816 47.768C27.9517 48.3005 27.577 48.7891 27.0444 48.8592L17.2559 50.1446C16.7233 50.2147 16.2348 49.8399 16.1647 49.3075C16.0946 48.7749 16.4695 48.2864 17.002 48.2163Z" fill="#003930"/>
<path d="M20.0098 71.3573L23.1265 70.9694C23.6589 70.8993 24.1474 71.2743 24.2176 71.8068C24.2877 72.3394 23.9128 72.8276 23.3804 72.8977L20.2637 73.2858C19.7311 73.3559 19.2426 72.9809 19.1725 72.4485C19.1024 71.9159 19.4773 71.4274 20.0098 71.3573Z" fill="#F5F5DC"/>
<path d="M18.7364 61.7153L21.9349 61.3209C22.4673 61.2508 22.9558 61.6257 23.026 62.1582C23.0961 62.6908 22.7212 63.1792 22.1888 63.2493L18.9903 63.6437C18.4577 63.7138 17.9692 63.3389 17.8991 62.8065C17.8289 62.274 18.2038 61.7854 18.7364 61.7153Z" fill="#F5F5DC"/>
<path d="M17.4707 52.0734L20.3699 51.7072C20.9023 51.6371 21.3909 52.0121 21.461 52.5446C21.5311 53.0772 21.1562 53.5654 20.6238 53.6355L17.7246 54.0019C17.1921 54.072 16.7035 53.697 16.6334 53.1646C16.5633 52.632 16.9382 52.1435 17.4707 52.0734Z" fill="#F5F5DC"/>
</g>
</g>
<defs>
<clipPath id="clip0_2125_4629">
<rect width="88" height="88" fill="white" transform="translate(0.5)"/>
</clipPath>
</defs>
</svg>
