<svg width="18" height="20" viewBox="0 0 18 20" fill="none" xmlns="http://www.w3.org/2000/svg">
<g id="Bag 1">
<path id="Exclude" fill-rule="evenodd" clip-rule="evenodd" d="M5 5.25C2.37665 5.25 0.25 7.37665 0.25 10V15C0.25 17.6234 2.37665 19.75 5 19.75H13C15.6234 19.75 17.75 17.6234 17.75 15V10C17.75 7.37665 15.6234 5.25 13 5.25H5ZM4.25 5C4.25 2.37665 6.37665 0.25 9 0.25C11.6234 0.25 13.75 2.37665 13.75 5V8C13.75 8.41421 13.4142 8.75 13 8.75C12.5858 8.75 12.25 8.41421 12.25 8V5C12.25 3.20507 10.7949 1.75 9 1.75C7.20507 1.75 5.75 3.20507 5.75 5V8C5.75 8.41421 5.41421 8.75 5 8.75C4.58579 8.75 4.25 8.41421 4.25 8V5Z" fill="#2B3F6C"/>
</g>
</svg>
